<svg viewBox="0 0 60 60" fill="none" xmlns="http://www.w3.org/2000/svg">
<path d="M8.71057 13.8462L11.7694 54.677C11.877 56.1192 12.5206 57.4677 13.5721 58.4542C14.6236 59.4406 16.0058 59.9925 17.4435 60H43.107C44.5665 59.9989 45.9706 59.4381 47.0333 58.432C48.0961 57.4258 48.7375 56.0499 48.827 54.5847L51.2894 13.8462H8.71057ZM25.4117 47.9539C25.4117 48.2925 25.278 48.6173 25.0399 48.8568C24.8019 49.0963 24.479 49.2308 24.1423 49.2308H22.0929C21.7563 49.2308 21.4334 49.0963 21.1953 48.8568C20.9573 48.6173 20.8235 48.2925 20.8235 47.9539V22.8154C20.8235 22.4768 20.9573 22.152 21.1953 21.9125C21.4334 21.673 21.7563 21.5385 22.0929 21.5385H24.1423C24.479 21.5385 24.8019 21.673 25.0399 21.9125C25.278 22.152 25.4117 22.4768 25.4117 22.8154V47.9539ZM39.1765 47.9539C39.1765 48.2925 39.0427 48.6173 38.8047 48.8568C38.5666 49.0963 38.2437 49.2308 37.907 49.2308H35.8576C35.521 49.2308 35.1981 49.0963 34.96 48.8568C34.722 48.6173 34.5882 48.2925 34.5882 47.9539V22.8154C34.5882 22.4768 34.722 22.152 34.96 21.9125C35.1981 21.673 35.521 21.5385 35.8576 21.5385H37.907C38.2437 21.5385 38.5666 21.673 38.8047 21.9125C39.0427 22.152 39.1765 22.4768 39.1765 22.8154V47.9539Z" fill="#002964"/>
<path d="M39.1765 2.30769C39.1765 1.69565 38.9348 1.10868 38.5045 0.675907C38.0743 0.243131 37.4908 0 36.8824 0H23.1176C22.5092 0 21.9257 0.243131 21.4955 0.675907C21.0652 1.10868 20.8235 1.69565 20.8235 2.30769C20.8235 2.91973 20.5818 3.5067 20.1516 3.93948C19.7214 4.37225 19.1378 4.61538 18.5294 4.61538H6.29412C5.68568 4.61538 5.10216 4.85852 4.67193 5.29129C4.2417 5.72407 4 6.31104 4 6.92308V8.46154C4 9.07358 4.2417 9.66055 4.67193 10.0933C5.10216 10.5261 5.68568 10.7692 6.29412 10.7692H53.7059C54.3143 10.7692 54.8978 10.5261 55.3281 10.0933C55.7583 9.66055 56 9.07358 56 8.46154V6.92308C56 6.31104 55.7583 5.72407 55.3281 5.29129C54.8978 4.85852 54.3143 4.61538 53.7059 4.61538H41.4706C40.8622 4.61538 40.2786 4.37225 39.8484 3.93948C39.4182 3.5067 39.1765 2.91973 39.1765 2.30769Z" fill="#002964"/>
</svg>
